<svg width="136" height="29" fill="none" xmlns="http://www.w3.org/2000/svg"><path d="M101.82 28.156v-14.14h2.442v3.32c.26-.091.612-.137 1.054-.137v2.403c-.455 0-.787.208-.996.625a.3.3 0 00-.039.117v7.812h-2.461zm4.453-8.554v-2.403c1.263 0 2.214.45 2.852 1.348a2.65 2.65 0 01.527 1.601v8.008h-2.441v-7.812c0-.183-.104-.358-.313-.528a.933.933 0 00-.625-.214zm4.239-.215v-2.52h1.367v-2.851h2.617v2.851h1.289v2.54h-1.289v5.175c.026.469.267.71.723.723h.566l.586 2.695h-1.172c-1.706 0-2.747-.645-3.125-1.934-.13-.468-.195-1.028-.195-1.68v-5h-1.367zM117.309 28v-8.105c0-.651.286-1.283.859-1.895.729-.755 1.621-1.14 2.676-1.152v2.597c-.521.078-.814.339-.879.782V28h-2.656zm4.433-8.555v-2.597c.886.013 1.641.254 2.266.722.599-.482 1.347-.722 2.246-.722v2.597c-.599.013-.905.274-.918.782V28h-2.656v-7.773c-.026-.508-.339-.769-.938-.782zm5.391 0v-2.597c1.263 0 2.259.501 2.988 1.504.391.546.586 1.06.586 1.543V28h-2.656v-7.773c-.026-.508-.332-.769-.918-.782zM132.27 28V14.016h2.812V28h-2.812z" fill="#000" fill-opacity=".2"/><path d="M1.299 22.702v-8.955c.023-1.185.524-2.301 1.504-3.35 1.185-1.253 2.7-1.88 4.546-1.88v4.376c-.957.068-1.481.376-1.573.922v8.887c0 .547.4.855 1.197.923.136.023.273.034.41.034V28c-2.416 0-4.193-.946-5.332-2.837-.502-.843-.752-1.663-.752-2.46zm7.622-9.775v-4.41c1.8 0 3.258.696 4.375 2.085.797.98 1.196 2.085 1.196 3.316l-4.17 1.606v-1.127c-.045-.957-.512-1.447-1.401-1.47zm0 15.107v-4.409c.98 0 1.55-.262 1.709-.786.068-.205.102-.444.102-.718v-1.128l4.17 1.607c.023 1.55-.683 2.905-2.119 4.067-1.185.957-2.472 1.413-3.862 1.367zm7.964-5.332v-8.92c0-1.117.49-2.211 1.47-3.282 1.23-1.299 2.79-1.96 4.682-1.982v4.443c-1.025.091-1.572.524-1.64 1.299v7.964c.045.888.592 1.344 1.64 1.367v4.443c-2.233 0-3.965-.9-5.195-2.7-.638-.934-.957-1.811-.957-2.632zm7.724 5.332v-4.443c.957-.114 1.481-.547 1.573-1.299l-.034-8.032c-.16-.82-.684-1.253-1.573-1.3V8.519c2.142 0 3.817.865 5.025 2.597.638.934.957 1.823.957 2.666v8.921c0 1.14-.49 2.256-1.47 3.35-1.185 1.299-2.677 1.96-4.478 1.982zm33.155-5.332v-8.955c.022-1.117.535-2.21 1.538-3.281 1.23-1.276 2.734-1.926 4.511-1.948v4.306c-.66 0-1.116.285-1.367.855a.85.85 0 00-.102.376v1.709h5.092v-1.675c-.022-.843-.615-1.265-1.777-1.265V8.518c1.664 0 3.122.57 4.375 1.709 1.094 1.002 1.652 2.164 1.675 3.486v6.46h-9.365v2.53c.16.66.66 1.024 1.504 1.093V28c-2.142 0-3.84-.877-5.093-2.632-.66-.934-.991-1.823-.991-2.666zM65.659 28v-4.17c1.23-.023 2.017-.604 2.359-1.743l3.725 1.401c-.342 1.459-1.207 2.632-2.597 3.52a6.517 6.517 0 01-3.487.992zm8.819 0V8.518h4.648v2.153c.797-1.025 1.88-1.732 3.247-2.12a5.205 5.205 0 011.436-.204h1.23l-1.06 4.58c-1.435.023-2.677.65-3.725 1.88-.752.888-1.128 1.811-1.128 2.768V28h-4.648zm-40.453-8.818v-2.188l12.1-6.084v4.444l-6.016 2.666 6.016 2.939v4.34l-12.1-6.117zm12.734 9.604l5.982-25.259h4.306L51.1 28.787h-4.34z" fill="#08546C"/><path d="M33.025 18.182v-2.188l12.1-6.084v4.444l-6.016 2.666 6.016 2.939v4.34l-12.1-6.117zm12.734 9.604l5.982-25.259h4.306L50.1 27.787h-4.34z" fill="#FFA800"/><path d="M87.025 25.3v-4.341l6.016-2.94-6.016-2.665V10.91l12.1 6.084v2.188l-12.1 6.118z" fill="#08546C"/></svg>